# xmcd CD database file
#
# Track frame offsets:
#	150
#	17482
#	40730
#
# Disc length: 774 seconds
#
# Revision: 0
# Processed by: cddbd v1.5.1PL0 Copyright (c) Steve Scherf et al.
# Submitted via: CDex 1.51
#
DISCID=16030403
DTITLE=小林旭 with 東京スカパラダイスオーケストラ - アキラのジーンときちゃうぜ
DYEAR=1900
DGENRE=Vocal
TTITLE0=アキラのジーンときちゃうぜ
TTITLE1=アキラのジーンときちゃうぜ Remix version "Rolling 30's"
TTITLE2=アキラのジーンときちゃうぜ（オリジナル・カラオケ）
EXTD=
EXTT0=
EXTT1=
EXTT2=
PLAYORDER=
